<svg xmlns="http://www.w3.org/2000/svg" version="1.1" xmlns:xlink="http://www.w3.org/1999/xlink" xmlns:svgjs="http://svgjs.com/svgjs" width="1440" height="560" preserveAspectRatio="none" viewBox="0 0 1440 560"><g mask="url(&quot;#SvgjsMask1021&quot;)" fill="none"><rect width="1440" height="560" x="0" y="0" fill="#0e2a47"></rect><path d="M1237.686,687.045C1276.872,685.43,1301.372,648.326,1318.991,613.287C1334.465,582.514,1339.834,547.135,1323.207,516.97C1306.018,485.786,1273.294,465.734,1237.686,465.785C1202.163,465.836,1171.005,486.839,1152.588,517.215C1133.388,548.882,1127.291,587.395,1143.881,620.504C1162.288,657.239,1196.632,688.737,1237.686,687.045" fill="rgba(28, 83, 142, 0.4)" class="triangle-float3"></path><path d="M1028.664,160.186C1063.351,159.976,1087.515,130.115,1104.953,100.129C1122.518,69.925,1137.121,33.81,1119.801,3.465C1102.382,-27.054,1063.7,-36.233,1028.664,-33.529C998.248,-31.181,974.302,-10.527,959.02,15.875C943.702,42.339,937.471,73.523,950.761,101.061C965.947,132.528,993.725,160.397,1028.664,160.186" fill="rgba(28, 83, 142, 0.4)" class="triangle-float2"></path><path d="M1437.02,365.983C1468.226,368.295,1502.217,357.231,1516.625,329.453C1530.329,303.033,1514.597,273.001,1498.096,248.231C1483.819,226.8,1462.759,210.727,1437.02,209.955C1409.878,209.141,1382.592,220.716,1369.253,244.368C1356.109,267.674,1362.5,295.624,1375.524,318.997C1388.982,343.149,1409.447,363.94,1437.02,365.983" fill="rgba(28, 83, 142, 0.4)" class="triangle-float2"></path><path d="M337.692,281.799C398.09,282.121,458.616,256.308,487.364,203.189C515.017,152.094,499.367,90.417,467.594,41.777C438.972,-2.039,389.963,-23.339,337.692,-25.938C279.382,-28.837,214.984,-21.4,183.313,27.645C149.567,79.904,158.461,148.441,190.756,201.609C221.803,252.722,277.889,281.48,337.692,281.799" fill="rgba(28, 83, 142, 0.4)" class="triangle-float3"></path><path d="M1181.478,195.252C1205.881,194.374,1232.318,189.472,1244.228,168.155C1255.94,147.193,1245.053,122.934,1233.705,101.773C1221.423,78.871,1207.45,52.032,1181.478,51.145C1154.638,50.228,1136.216,74.784,1122.681,97.98C1108.998,121.428,1096.347,149.736,1110.391,172.969C1124.159,195.747,1154.879,196.209,1181.478,195.252" fill="rgba(28, 83, 142, 0.4)" class="triangle-float1"></path><path d="M1202.9762787769012 271.6746221149246L1048.801354607312 371.58822004568674 1190.602043475456 446.98498373297366z" fill="rgba(28, 83, 142, 0.4)" class="triangle-float1"></path><path d="M1221.359,775.583C1284.112,780.443,1348.331,750.326,1377.901,694.764C1406.131,641.721,1383.114,580.379,1352.885,528.449C1322.903,476.943,1280.907,428.264,1221.359,425.843C1158.268,423.278,1097.361,460.082,1069.908,516.945C1045.107,568.315,1073.024,624.159,1101.849,673.384C1130.237,721.864,1165.347,771.245,1221.359,775.583" fill="rgba(28, 83, 142, 0.4)" class="triangle-float1"></path><path d="M579.8645181430638 285.6604185016957L513.1133143992031 380.99101707612715 675.1951167174954 352.41162224555643z" fill="rgba(28, 83, 142, 0.4)" class="triangle-float1"></path><path d="M668.5980098638315 355.1683227826712L709.338266073196 428.66569054635784 799.2141896140437 330.8066223504679z" fill="rgba(28, 83, 142, 0.4)" class="triangle-float1"></path><path d="M1149.75555715905 388.7575404033555L1293.9407891890355 350.27046367390733 1203.320141486822 256.4300359229294z" fill="rgba(28, 83, 142, 0.4)" class="triangle-float1"></path><path d="M672.502,190.469C698.148,190.179,723.079,177.471,734.692,154.603C745.454,133.41,737.145,108.774,724.069,88.925C712.468,71.314,693.576,60.988,672.502,60.198C649.771,59.346,626.496,65.935,613.772,84.79C599.484,105.963,595.418,133.711,607.826,156.038C620.542,178.919,646.327,190.765,672.502,190.469" fill="rgba(28, 83, 142, 0.4)" class="triangle-float3"></path><path d="M325.799,525.19C342.653,524.246,358.515,517.091,367.358,502.713C376.652,487.602,378.658,468.682,370.119,453.131C361.274,437.022,344.162,427.755,325.799,427.025C305.967,426.237,285.441,432.513,274.927,449.348C263.852,467.082,263.663,490.506,275.31,507.87C285.933,523.707,306.759,526.257,325.799,525.19" fill="rgba(28, 83, 142, 0.4)" class="triangle-float1"></path></g><defs><mask id="SvgjsMask1021"><rect width="1440" height="560" fill="#ffffff"></rect></mask><style>
            @keyframes float1 {
                0%{transform: translate(0, 0)}
                50%{transform: translate(-10px, 0)}
                100%{transform: translate(0, 0)}
            }

            .triangle-float1 {
                animation: float1 5s infinite;
            }

            @keyframes float2 {
                0%{transform: translate(0, 0)}
                50%{transform: translate(-5px, -5px)}
                100%{transform: translate(0, 0)}
            }

            .triangle-float2 {
                animation: float2 4s infinite;
            }

            @keyframes float3 {
                0%{transform: translate(0, 0)}
                50%{transform: translate(0, -10px)}
                100%{transform: translate(0, 0)}
            }

            .triangle-float3 {
                animation: float3 6s infinite;
            }
        </style></defs></svg>